# xmcd
#
# Track frame offsets: 
#        150
#        20724
#        33816
#        57225
#        69913
#        86794
#        98330
#        112723
#        129476
#        150225
#        167468
#
# Disc length: 2393 seconds
#
# Revision: 0
# Processed by: cddbd v1.5.2PL0 Copyright (c) Steve Scherf et al.
# Submitted via: ExactAudioCopy v1.3
#
DISCID=7209570b
DTITLE=Lew Jetton And 61 South - State Line Blues
DYEAR=2000
DGENRE=Rockin' Blues
TTITLE0=Curse The Day
TTITLE1=Betcha
TTITLE2=What's Wrong
TTITLE3=House Cat Blues
TTITLE4=Getting Colder
TTITLE5=Show Me
TTITLE6=Hushpuppies!
TTITLE7=State Line Blues
TTITLE8=Homegrown Tomato
TTITLE9=Bad Boy
TTITLE10=Heavy Weather
EXTD=
EXTT0=
EXTT1=
EXTT2=
EXTT3=
EXTT4=
EXTT5=
EXTT6=
EXTT7=
EXTT8=
EXTT9=
EXTT10=
PLAYORDER=
